<svg xmlns="http://www.w3.org/2000/svg" viewBox="0 0 64 80" x="0px" y="0px"><title>Game Genre - 25 - 64 - Expanded - Stroke 2 - 2020</title><g data-name="Layer 2"><g><path d="M4.5,49a1,1,0,0,1-1-1V36.13a1,1,0,0,1,.22-.62L5.5,33.27,4,32.36a1,1,0,0,1-.49-.86V16a5.88,5.88,0,0,1,.7-2.81A5.92,5.92,0,0,1,9.5,10h4a1,1,0,0,1,1,1V43a1,1,0,0,1-1,1h-4a4,4,0,0,0-4,4A1,1,0,0,1,4.5,49Zm1-12.52v7A6,6,0,0,1,9.5,42h3V12h-3a4,4,0,0,0-2.84,1.17,3.85,3.85,0,0,0-.69.94A4.07,4.07,0,0,0,5.5,16V30.93l2,1.21a1,1,0,0,1,.47.68,1,1,0,0,1-.2.8Z"/><path d="M59.5,49a1,1,0,0,1-1-1,4,4,0,0,0-4-4h-4a1,1,0,0,1-1-1V11a1,1,0,0,1,1-1h4a6,6,0,0,1,4.24,1.75,5.77,5.77,0,0,1,1.07,1.46A5.85,5.85,0,0,1,60.5,16v3.07a1,1,0,0,1-.39.79L58.5,21.11l1.72,1.76a1,1,0,0,1,.28.7V48A1,1,0,0,1,59.5,49Zm-8-7h3a6,6,0,0,1,4,1.52V24L56.28,21.7a1,1,0,0,1-.28-.77,1,1,0,0,1,.39-.72l2.11-1.63V16A4,4,0,0,0,58,14.13a3.68,3.68,0,0,0-.71-1A4,4,0,0,0,54.5,12h-3Zm8-22.93h0Z"/><path d="M54.5,54H41a1,1,0,0,1-.89-.55L38.93,51.1l-1.41,2.4a1,1,0,0,1-.86.5H25.33a1,1,0,0,1-1-.84l-.07-.47-1.72,1.14A1,1,0,0,1,22,54H9.5a6,6,0,1,1,0-12h3V19a1,1,0,0,1,1-1h8.41a1,1,0,0,1,0,2H14.5V43a1,1,0,0,1-1,1h-4a4,4,0,0,0-4,4,4,4,0,0,0,4,4H21.7l2.75-1.83a1,1,0,0,1,.95-.09,1,1,0,0,1,.59.76L26.18,52h9.91l2-3.5A.93.93,0,0,1,39,48a1,1,0,0,1,.86.55L41.62,52H54.5a4,4,0,0,0,4-4,4,4,0,0,0-4-4h-4a1,1,0,0,1-1-1V20H42.09a1,1,0,0,1,0-2H50.5a1,1,0,0,1,1,1V42h3a6,6,0,0,1,0,12Z"/><path d="M35,21.64a1,1,0,0,1-.35-.06L30.49,20h-2.4a1,1,0,0,1,0-2h2.58a1,1,0,0,1,.35.06l4.37,1.64A1,1,0,0,1,35,21.64Z"/></g><path d="M38.14,47a4.13,4.13,0,0,1-2.57-7.37,5.72,5.72,0,1,1,5.8,5.8A4.13,4.13,0,0,1,38.14,47Zm3.15-11a3.72,3.72,0,0,0-3.72,3.71.51.51,0,0,0,0,.13l0,.2a1,1,0,0,1-.51,1A2.13,2.13,0,1,0,40,43.9a1,1,0,0,1,1-.51l.2,0,.13,0a3.72,3.72,0,0,0,0-7.43Z"/><path d="M25,34.18A36.6,36.6,0,0,1,15.75,33,1,1,0,0,1,15,31.82c.57-3.16,2.61-7,4.78-11,.89-1.66,1.81-3.38,2.64-5.07a2.76,2.76,0,0,1,5.12,0c.83,1.7,1.75,3.42,2.64,5.08,2.17,4,4.21,7.82,4.78,11A1,1,0,0,1,34.25,33,36.6,36.6,0,0,1,25,34.18Zm-7.81-2.91a34.06,34.06,0,0,0,15.62,0c-.72-2.7-2.5-6-4.37-9.48-.9-1.68-1.83-3.41-2.68-5.14a.79.79,0,0,0-1.52,0c-.85,1.73-1.78,3.46-2.68,5.14C19.69,25.26,17.91,28.57,17.19,31.27Z"/><path d="M39,34.18a35.56,35.56,0,0,1-7.18-.73,1,1,0,1,1,.4-2A34,34,0,0,0,47.75,31a1,1,0,1,1,.5,1.94A36.25,36.25,0,0,1,39,34.18Z"/><path d="M48,33a1,1,0,0,1-1-.82c-.53-2.86-2.51-6.55-4.6-10.45-.9-1.65-1.82-3.37-2.66-5.08a.79.79,0,0,0-1.52,0c-.84,1.71-1.76,3.41-2.65,5.07-1,1.82-1.9,3.54-2.69,5.19a1,1,0,0,1-1.8-.86c.8-1.69,1.74-3.43,2.73-5.28.88-1.64,1.79-3.33,2.61-5a2.75,2.75,0,0,1,5.12,0c.82,1.68,1.73,3.37,2.62,5,2.17,4,4.23,7.86,4.8,11a1,1,0,0,1-.8,1.16A.55.55,0,0,1,48,33Z"/><path d="M20.53,54a1,1,0,0,1-.84-1.54c0-.06,4.06-6.46,1.51-9.86-3.54-4.72,2.9-10,3.17-10.2a1,1,0,0,1,1.41.16,1,1,0,0,1-.15,1.4c-.06,0-5.21,4.26-2.83,7.44,3.38,4.5-1.23,11.83-1.43,12.14A1,1,0,0,1,20.53,54Z"/><path d="M25.53,54a1,1,0,0,1-.84-1.54c0-.06,4.06-6.46,1.51-9.86-3.54-4.72,2.9-10,3.17-10.2a1,1,0,0,1,1.41.16,1,1,0,0,1-.15,1.4c-.06,0-5.21,4.26-2.83,7.44,3.38,4.5-1.23,11.83-1.43,12.14A1,1,0,0,1,25.53,54Z"/><path d="M25,24a1,1,0,0,1-.71-.29L20.88,20.3a1,1,0,0,1,1.42-1.42L25,21.62l2.8-2.57a1,1,0,0,1,1.42.07,1,1,0,0,1-.07,1.41l-3.51,3.21A1,1,0,0,1,25,24Z"/><path d="M39,24a1,1,0,0,1-.71-.29L34.88,20.3a1,1,0,0,1,1.42-1.42L39,21.62l2.8-2.57a1,1,0,0,1,1.42.07,1,1,0,0,1-.07,1.41l-3.51,3.21A1,1,0,0,1,39,24Z"/></g><text x="0" y="79" fill="#000000" font-size="5px" font-weight="bold" font-family="'Helvetica Neue', Helvetica, Arial-Unicode, Arial, Sans-serif">Created by Ian Rahmadi Kurniawan</text><text x="0" y="84" fill="#000000" font-size="5px" font-weight="bold" font-family="'Helvetica Neue', Helvetica, Arial-Unicode, Arial, Sans-serif">from the Noun Project</text></svg>